<?xml version="1.0" standalone="no"?>
<!DOCTYPE svg PUBLIC "-//W3C//DTD SVG 20010904//EN"
 "http://www.w3.org/TR/2001/REC-SVG-20010904/DTD/svg10.dtd">
<svg version="1.0" xmlns="http://www.w3.org/2000/svg"
 width="668.000000pt" height="375.000000pt" viewBox="0 0 668.000000 375.000000"
 preserveAspectRatio="xMidYMid meet">
<metadata>
Created by potrace 1.16, written by Peter Selinger 2001-2019
</metadata>
<g transform="translate(0.000000,375.000000) scale(0.100000,-0.100000)"
fill="#000000" stroke="none">
<path d="M3555 2663 c-259 -30 -452 -169 -570 -408 -54 -110 -84 -222 -94
-357 -17 -214 19 -423 101 -582 55 -107 172 -226 275 -279 131 -68 304 -97
453 -77 159 22 280 82 395 195 164 162 245 385 245 676 0 476 -234 779 -640
829 -83 10 -106 10 -165 3z m167 -54 c136 -31 272 -178 343 -374 49 -136 60
-214 59 -430 -1 -222 -14 -309 -73 -461 -114 -296 -348 -419 -587 -310 -68 31
-177 138 -220 216 -80 144 -114 281 -121 492 -12 345 56 590 210 755 110 117
221 149 389 112z"/>
<path d="M746 2578 c4 -29 8 -137 8 -240 1 -188 1 -188 23 -188 24 0 27 8 38
95 13 105 46 194 92 245 72 80 89 83 437 88 l299 3 -17 -26 c-9 -14 -30 -47
-45 -73 -15 -26 -74 -123 -131 -217 -57 -93 -227 -375 -378 -625 -151 -250
-297 -491 -323 -535 -27 -44 -49 -88 -49 -97 0 -17 34 -18 580 -18 l580 0 -6
27 c-4 15 -8 123 -8 241 l-1 213 -25 -3 c-23 -3 -25 -9 -37 -96 -19 -131 -46
-198 -102 -252 -72 -71 -85 -73 -425 -77 -164 -3 -296 -1 -293 4 2 4 210 352
462 772 252 421 460 775 463 788 l4 23 -576 0 -577 0 7 -52z"/>
<path d="M2090 2611 c0 -15 10 -20 48 -26 74 -11 107 -29 123 -66 20 -48 21
-1354 1 -1411 -15 -41 -50 -62 -124 -73 -38 -6 -48 -11 -48 -26 0 -18 13 -19
295 -19 282 0 295 1 295 19 0 15 -10 20 -47 25 -71 10 -102 25 -121 60 -15 28
-17 91 -20 685 -3 725 -1 749 51 781 17 11 55 22 84 26 43 5 53 10 53 25 0 18
-13 19 -295 19 -282 0 -295 -1 -295 -19z"/>
<path d="M4570 2611 c0 -16 10 -21 56 -27 82 -10 112 -40 125 -125 16 -103 8
-1295 -9 -1334 -23 -52 -51 -74 -114 -86 -46 -9 -58 -15 -58 -30 0 -18 12 -19
225 -19 214 0 225 1 225 19 0 15 -10 20 -47 26 -75 11 -122 34 -141 69 -15 28
-17 91 -20 699 -1 368 1 666 6 663 5 -3 66 -94 136 -203 70 -109 173 -269 229
-355 56 -87 214 -331 351 -542 136 -212 255 -387 263 -390 44 -17 42 -49 45
752 3 702 4 759 21 789 21 39 55 59 120 68 37 6 47 11 47 26 0 18 -11 19 -225
19 -211 0 -225 -1 -225 -18 0 -15 13 -21 61 -30 73 -13 102 -31 126 -75 17
-29 18 -78 21 -579 2 -302 -1 -548 -5 -547 -4 0 -64 88 -133 195 -69 107 -161
249 -205 317 -44 67 -170 260 -279 430 l-199 307 -198 0 c-190 0 -199 -1 -199
-19z"/>
</g>
</svg>
